# xmcd CD database file
#
# Track frame offsets:
#	150
#	13907
#	27720
#	41585
#	56105
#	68412
#	82127
#	93832
#	111987
#	126852
#	142995
#	157627
#	172287
#	184282
#	196402
#	208955
#	222677
#	246750
#	258510
#	271417
#	285090
#	299207
#	313382
#	328230
#
# Disc length: 4563 seconds
#
# Revision: 10
# Processed by: cddbd v1.5.2PL0 Copyright (c) Steve Scherf et al.
# Submitted via: CDex 1.77
#
DISCID=8811d118
DTITLE=CD 18 - Grands Orchestres - Les Triomphes Du Jazz
DYEAR=2000
DGENRE=Jazz
TTITLE0=Saratoga Rag - Luis Russel and His Orchestra
TTITLE1=Savage Rythm - Mills Blue Rythm Band
TTITLE2=Moten Swing - Bennie Moten  and His Orchestra
TTITLE3=Chant Of The Weed - Don Redman  and His Orchestra
TTITLE4=Polka Dot Rag - Noble Sissle  and His International Orchestra
TTITLE5=Symphony In Riffs - Benny Carter and His Orchestra
TTITLE6=Grand Terrace Shuffle - Earl Hines and His Orchestra
TTITLE7=Sing, Sing, Sing - Benny Goodmann  and His Orchestra
TTITLE8=Cherokee - Charlie Barnet and His Orchestra
TTITLE9=I'm Getting Sentimental Over You - Tommy Dorsey and His Orchestra
TTITLE10=Tuxedo Junction - Erskine Hawkins and His Orchestra
TTITLE11=Begin The Beguine - Artie Shaw and His Orchestra
TTITLE12=Casa Loma Stomp - Casa Loma Orchestra
TTITLE13=Liza - Chick Webb and His Orchestra
TTITLE14=The Jumpin' Jive - Cab Calloway  and His Orchestra
TTITLE15=Christopher Colombus - Fletcher Henderson and His Orchestra
TTITLE16=Blues In The Night - Jimmie Lunceford and His Orchestra
TTITLE17=Swingmatism - Jay Mcshann and His Orchestra
TTITLE18=Mcghee Special - Andy Kirk and His Twelve Clouds Of Joy
TTITLE19=Savoy - Lucky Millinder and His Orchestra
TTITLE20=I'm Beginning To See The Light - Harry James and His Orchestra
TTITLE21=Disc Jockey Jump - Gene Krupa and His Orchestra
TTITLE22=Apple Honey - Woody Herman and His Orchestra
TTITLE23=Overtime - The Metronome All Stars
EXTD=YEAR: 2000
EXTT0=
EXTT1=
EXTT2=
EXTT3=
EXTT4=
EXTT5=
EXTT6=
EXTT7=
EXTT8=
EXTT9=
EXTT10=
EXTT11=
EXTT12=
EXTT13=
EXTT14=
EXTT15=
EXTT16=
EXTT17=
EXTT18=
EXTT19=
EXTT20=
EXTT21=
EXTT22=
EXTT23=
PLAYORDER=
